<svg version="1.1" xmlns="http://www.w3.org/2000/svg" xmlns:xlink="http://www.w3.org/1999/xlink" width="2400" height="1600"><defs/><g transform="scale(2,2)"><g id="background-9b2913d0"><rect fill="white" stroke="none" x="0" y="0" width="1200" height="800" class="dcg-svg-background"/></g><g id="background-images-9b2913d0"/><g id="graphpaper-9b2913d0"><g id="grid-9b2913d0"><g><path fill="none" stroke="rgb(0,0,0)" class="dcg-svg-minor-gridline" paint-order="fill stroke markers" d=" M 30.5 0 L 30.5 800" stroke-opacity="0.2" stroke-miterlimit="10" stroke-dasharray=""/><path fill="none" stroke="rgb(0,0,0)" class="dcg-svg-minor-gridline" paint-order="fill stroke markers" d=" M 60.5 0 L 60.5 800" stroke-opacity="0.2" stroke-miterlimit="10" stroke-dasharray=""/><path fill="none" stroke="rgb(0,0,0)" class="dcg-svg-minor-gridline" paint-order="fill stroke markers" d=" M 89.5 0 L 89.5 800" stroke-opacity="0.2" stroke-miterlimit="10" stroke-dasharray=""/><path fill="none" stroke="rgb(0,0,0)" class="dcg-svg-minor-gridline" paint-order="fill stroke markers" d=" M 120.5 0 L 120.5 800" stroke-opacity="0.2" stroke-miterlimit="10" stroke-dasharray=""/><path fill="none" stroke="rgb(0,0,0)" class="dcg-svg-minor-gridline" paint-order="fill stroke markers" d=" M 150.5 0 L 150.5 800" stroke-opacity="0.2" stroke-miterlimit="10" stroke-dasharray=""/><path fill="none" stroke="rgb(0,0,0)" class="dcg-svg-minor-gridline" paint-order="fill stroke markers" d=" M 179.5 0 L 179.5 800" stroke-opacity="0.2" stroke-miterlimit="10" stroke-dasharray=""/><path fill="none" stroke="rgb(0,0,0)" class="dcg-svg-minor-gridline" paint-order="fill stroke markers" d=" M 210.5 0 L 210.5 800" stroke-opacity="0.2" stroke-miterlimit="10" stroke-dasharray=""/><path fill="none" stroke="rgb(0,0,0)" class="dcg-svg-minor-gridline" paint-order="fill stroke markers" d=" M 239.5 0 L 239.5 800" stroke-opacity="0.2" stroke-miterlimit="10" stroke-dasharray=""/><path fill="none" stroke="rgb(0,0,0)" class="dcg-svg-minor-gridline" paint-order="fill stroke markers" d=" M 270.5 0 L 270.5 800" stroke-opacity="0.2" stroke-miterlimit="10" stroke-dasharray=""/><path fill="none" stroke="rgb(0,0,0)" class="dcg-svg-minor-gridline" paint-order="fill stroke markers" d=" M 300.5 0 L 300.5 800" stroke-opacity="0.2" stroke-miterlimit="10" stroke-dasharray=""/><path fill="none" stroke="rgb(0,0,0)" class="dcg-svg-minor-gridline" paint-order="fill stroke markers" d=" M 330.5 0 L 330.5 800" stroke-opacity="0.2" stroke-miterlimit="10" stroke-dasharray=""/><path fill="none" stroke="rgb(0,0,0)" class="dcg-svg-minor-gridline" paint-order="fill stroke markers" d=" M 360.5 0 L 360.5 800" stroke-opacity="0.2" stroke-miterlimit="10" stroke-dasharray=""/><path fill="none" stroke="rgb(0,0,0)" class="dcg-svg-minor-gridline" paint-order="fill stroke markers" d=" M 390.5 0 L 390.5 800" stroke-opacity="0.2" stroke-miterlimit="10" stroke-dasharray=""/><path fill="none" stroke="rgb(0,0,0)" class="dcg-svg-minor-gridline" paint-order="fill stroke markers" d=" M 420.5 0 L 420.5 800" stroke-opacity="0.2" stroke-miterlimit="10" stroke-dasharray=""/><path fill="none" stroke="rgb(0,0,0)" class="dcg-svg-minor-gridline" paint-order="fill stroke markers" d=" M 450.5 0 L 450.5 800" stroke-opacity="0.2" stroke-miterlimit="10" stroke-dasharray=""/><path fill="none" stroke="rgb(0,0,0)" class="dcg-svg-minor-gridline" paint-order="fill stroke markers" d=" M 480.5 0 L 480.5 800" stroke-opacity="0.2" stroke-miterlimit="10" stroke-dasharray=""/><path fill="none" stroke="rgb(0,0,0)" class="dcg-svg-minor-gridline" paint-order="fill stroke markers" d=" M 510.5 0 L 510.5 800" stroke-opacity="0.2" stroke-miterlimit="10" stroke-dasharray=""/><path fill="none" stroke="rgb(0,0,0)" class="dcg-svg-minor-gridline" paint-order="fill stroke markers" d=" M 540.5 0 L 540.5 800" stroke-opacity="0.2" stroke-miterlimit="10" stroke-dasharray=""/><path fill="none" stroke="rgb(0,0,0)" class="dcg-svg-minor-gridline" paint-order="fill stroke markers" d=" M 570.5 0 L 570.5 800" stroke-opacity="0.2" stroke-miterlimit="10" stroke-dasharray=""/><path fill="none" stroke="rgb(0,0,0)" class="dcg-svg-minor-gridline" paint-order="fill stroke markers" d=" M 630.5 0 L 630.5 800" stroke-opacity="0.2" stroke-miterlimit="10" stroke-dasharray=""/><path fill="none" stroke="rgb(0,0,0)" class="dcg-svg-minor-gridline" paint-order="fill stroke markers" d=" M 660.5 0 L 660.5 800" stroke-opacity="0.2" stroke-miterlimit="10" stroke-dasharray=""/><path fill="none" stroke="rgb(0,0,0)" class="dcg-svg-minor-gridline" paint-order="fill stroke markers" d=" M 690.5 0 L 690.5 800" stroke-opacity="0.2" stroke-miterlimit="10" stroke-dasharray=""/><path fill="none" stroke="rgb(0,0,0)" class="dcg-svg-minor-gridline" paint-order="fill stroke markers" d=" M 720.5 0 L 720.5 800" stroke-opacity="0.2" stroke-miterlimit="10" stroke-dasharray=""/><path fill="none" stroke="rgb(0,0,0)" class="dcg-svg-minor-gridline" paint-order="fill stroke markers" d=" M 750.5 0 L 750.5 800" stroke-opacity="0.2" stroke-miterlimit="10" stroke-dasharray=""/><path fill="none" stroke="rgb(0,0,0)" class="dcg-svg-minor-gridline" paint-order="fill stroke markers" d=" M 780.5 0 L 780.5 800" stroke-opacity="0.2" stroke-miterlimit="10" stroke-dasharray=""/><path fill="none" stroke="rgb(0,0,0)" class="dcg-svg-minor-gridline" paint-order="fill stroke markers" d=" M 810.5 0 L 810.5 800" stroke-opacity="0.2" stroke-miterlimit="10" stroke-dasharray=""/><path fill="none" stroke="rgb(0,0,0)" class="dcg-svg-minor-gridline" paint-order="fill stroke markers" d=" M 840.5 0 L 840.5 800" stroke-opacity="0.2" stroke-miterlimit="10" stroke-dasharray=""/><path fill="none" stroke="rgb(0,0,0)" class="dcg-svg-minor-gridline" paint-order="fill stroke markers" d=" M 870.5 0 L 870.5 800" stroke-opacity="0.2" stroke-miterlimit="10" stroke-dasharray=""/><path fill="none" stroke="rgb(0,0,0)" class="dcg-svg-minor-gridline" paint-order="fill stroke markers" d=" M 900.5 0 L 900.5 800" stroke-opacity="0.2" stroke-miterlimit="10" stroke-dasharray=""/><path fill="none" stroke="rgb(0,0,0)" class="dcg-svg-minor-gridline" paint-order="fill stroke markers" d=" M 930.5 0 L 930.5 800" stroke-opacity="0.2" stroke-miterlimit="10" stroke-dasharray=""/><path fill="none" stroke="rgb(0,0,0)" class="dcg-svg-minor-gridline" paint-order="fill stroke markers" d=" M 960.5 0 L 960.5 800" stroke-opacity="0.2" stroke-miterlimit="10" stroke-dasharray=""/><path fill="none" stroke="rgb(0,0,0)" class="dcg-svg-minor-gridline" paint-order="fill stroke markers" d=" M 990.5 0 L 990.5 800" stroke-opacity="0.2" stroke-miterlimit="10" stroke-dasharray=""/><path fill="none" stroke="rgb(0,0,0)" class="dcg-svg-minor-gridline" paint-order="fill stroke markers" d=" M 1020.5 0 L 1020.5 800" stroke-opacity="0.2" stroke-miterlimit="10" stroke-dasharray=""/><path fill="none" stroke="rgb(0,0,0)" class="dcg-svg-minor-gridline" paint-order="fill stroke markers" d=" M 1050.5 0 L 1050.5 800" stroke-opacity="0.2" stroke-miterlimit="10" stroke-dasharray=""/><path fill="none" stroke="rgb(0,0,0)" class="dcg-svg-minor-gridline" paint-order="fill stroke markers" d=" M 1080.5 0 L 1080.5 800" stroke-opacity="0.2" stroke-miterlimit="10" stroke-dasharray=""/><path fill="none" stroke="rgb(0,0,0)" class="dcg-svg-minor-gridline" paint-order="fill stroke markers" d=" M 1110.5 0 L 1110.5 800" stroke-opacity="0.2" stroke-miterlimit="10" stroke-dasharray=""/><path fill="none" stroke="rgb(0,0,0)" class="dcg-svg-minor-gridline" paint-order="fill stroke markers" d=" M 1140.5 0 L 1140.5 800" stroke-opacity="0.2" stroke-miterlimit="10" stroke-dasharray=""/><path fill="none" stroke="rgb(0,0,0)" class="dcg-svg-minor-gridline" paint-order="fill stroke markers" d=" M 1170.5 0 L 1170.5 800" stroke-opacity="0.2" stroke-miterlimit="10" stroke-dasharray=""/><path fill="none" stroke="rgb(0,0,0)" class="dcg-svg-minor-gridline" paint-order="fill stroke markers" d=" M 0 783.5 L 1200 783.5" stroke-opacity="0.2" stroke-miterlimit="10" stroke-dasharray=""/><path fill="none" stroke="rgb(0,0,0)" class="dcg-svg-minor-gridline" paint-order="fill stroke markers" d=" M 0 753.5 L 1200 753.5" stroke-opacity="0.2" stroke-miterlimit="10" stroke-dasharray=""/><path fill="none" stroke="rgb(0,0,0)" class="dcg-svg-minor-gridline" paint-order="fill stroke markers" d=" M 0 723.5 L 1200 723.5" stroke-opacity="0.2" stroke-miterlimit="10" stroke-dasharray=""/><path fill="none" stroke="rgb(0,0,0)" class="dcg-svg-minor-gridline" paint-order="fill stroke markers" d=" M 0 693.5 L 1200 693.5" stroke-opacity="0.2" stroke-miterlimit="10" stroke-dasharray=""/><path fill="none" stroke="rgb(0,0,0)" class="dcg-svg-minor-gridline" paint-order="fill stroke markers" d=" M 0 663.5 L 1200 663.5" stroke-opacity="0.2" stroke-miterlimit="10" stroke-dasharray=""/><path fill="none" stroke="rgb(0,0,0)" class="dcg-svg-minor-gridline" paint-order="fill stroke markers" d=" M 0 633.5 L 1200 633.5" stroke-opacity="0.2" stroke-miterlimit="10" stroke-dasharray=""/><path fill="none" stroke="rgb(0,0,0)" class="dcg-svg-minor-gridline" paint-order="fill stroke markers" d=" M 0 603.5 L 1200 603.5" stroke-opacity="0.2" stroke-miterlimit="10" stroke-dasharray=""/><path fill="none" stroke="rgb(0,0,0)" class="dcg-svg-minor-gridline" paint-order="fill stroke markers" d=" M 0 573.5 L 1200 573.5" stroke-opacity="0.2" stroke-miterlimit="10" stroke-dasharray=""/><path fill="none" stroke="rgb(0,0,0)" class="dcg-svg-minor-gridline" paint-order="fill stroke markers" d=" M 0 543.5 L 1200 543.5" stroke-opacity="0.2" stroke-miterlimit="10" stroke-dasharray=""/><path fill="none" stroke="rgb(0,0,0)" class="dcg-svg-minor-gridline" paint-order="fill stroke markers" d=" M 0 513.5 L 1200 513.5" stroke-opacity="0.2" stroke-miterlimit="10" stroke-dasharray=""/><path fill="none" stroke="rgb(0,0,0)" class="dcg-svg-minor-gridline" paint-order="fill stroke markers" d=" M 0 483.5 L 1200 483.5" stroke-opacity="0.2" stroke-miterlimit="10" stroke-dasharray=""/><path fill="none" stroke="rgb(0,0,0)" class="dcg-svg-minor-gridline" paint-order="fill stroke markers" d=" M 0 453.5 L 1200 453.5" stroke-opacity="0.2" stroke-miterlimit="10" stroke-dasharray=""/><path fill="none" stroke="rgb(0,0,0)" class="dcg-svg-minor-gridline" paint-order="fill stroke markers" d=" M 0 423.5 L 1200 423.5" stroke-opacity="0.2" stroke-miterlimit="10" stroke-dasharray=""/><path fill="none" stroke="rgb(0,0,0)" class="dcg-svg-minor-gridline" paint-order="fill stroke markers" d=" M 0 393.5 L 1200 393.5" stroke-opacity="0.2" stroke-miterlimit="10" stroke-dasharray=""/><path fill="none" stroke="rgb(0,0,0)" class="dcg-svg-minor-gridline" paint-order="fill stroke markers" d=" M 0 363.5 L 1200 363.5" stroke-opacity="0.2" stroke-miterlimit="10" stroke-dasharray=""/><path fill="none" stroke="rgb(0,0,0)" class="dcg-svg-minor-gridline" paint-order="fill stroke markers" d=" M 0 333.5 L 1200 333.5" stroke-opacity="0.2" stroke-miterlimit="10" stroke-dasharray=""/><path fill="none" stroke="rgb(0,0,0)" class="dcg-svg-minor-gridline" paint-order="fill stroke markers" d=" M 0 303.5 L 1200 303.5" stroke-opacity="0.2" stroke-miterlimit="10" stroke-dasharray=""/><path fill="none" stroke="rgb(0,0,0)" class="dcg-svg-minor-gridline" paint-order="fill stroke markers" d=" M 0 273.5 L 1200 273.5" stroke-opacity="0.2" stroke-miterlimit="10" stroke-dasharray=""/><path fill="none" stroke="rgb(0,0,0)" class="dcg-svg-minor-gridline" paint-order="fill stroke markers" d=" M 0 243.5 L 1200 243.5" stroke-opacity="0.2" stroke-miterlimit="10" stroke-dasharray=""/><path fill="none" stroke="rgb(0,0,0)" class="dcg-svg-minor-gridline" paint-order="fill stroke markers" d=" M 0 213.5 L 1200 213.5" stroke-opacity="0.2" stroke-miterlimit="10" stroke-dasharray=""/><path fill="none" stroke="rgb(0,0,0)" class="dcg-svg-minor-gridline" paint-order="fill stroke markers" d=" M 0 183.5 L 1200 183.5" stroke-opacity="0.2" stroke-miterlimit="10" stroke-dasharray=""/><path fill="none" stroke="rgb(0,0,0)" class="dcg-svg-minor-gridline" paint-order="fill stroke markers" d=" M 0 153.5 L 1200 153.5" stroke-opacity="0.2" stroke-miterlimit="10" stroke-dasharray=""/><path fill="none" stroke="rgb(0,0,0)" class="dcg-svg-minor-gridline" paint-order="fill stroke markers" d=" M 0 123.5 L 1200 123.5" stroke-opacity="0.2" stroke-miterlimit="10" stroke-dasharray=""/><path fill="none" stroke="rgb(0,0,0)" class="dcg-svg-minor-gridline" paint-order="fill stroke markers" d=" M 0 93.5 L 1200 93.5" stroke-opacity="0.2" stroke-miterlimit="10" stroke-dasharray=""/><path fill="none" stroke="rgb(0,0,0)" class="dcg-svg-minor-gridline" paint-order="fill stroke markers" d=" M 0 63.5 L 1200 63.5" stroke-opacity="0.2" stroke-miterlimit="10" stroke-dasharray=""/><path fill="none" stroke="rgb(0,0,0)" class="dcg-svg-minor-gridline" paint-order="fill stroke markers" d=" M 0 33.5 L 1200 33.5" stroke-opacity="0.2" stroke-miterlimit="10" stroke-dasharray=""/><path fill="none" stroke="rgb(0,0,0)" class="dcg-svg-minor-gridline" paint-order="fill stroke markers" d=" M 0 3.5 L 1200 3.5" stroke-opacity="0.2" stroke-miterlimit="10" stroke-dasharray=""/><path fill="none" stroke="rgb(0,0,0)" class="dcg-svg-major-gridline" paint-order="fill stroke markers" d=" M 150.5 0 L 150.5 800" stroke-opacity="0.2500000000000001" stroke-miterlimit="10" stroke-dasharray=""/><path fill="none" stroke="rgb(0,0,0)" class="dcg-svg-major-gridline" paint-order="fill stroke markers" d=" M 300.5 0 L 300.5 800" stroke-opacity="0.2500000000000001" stroke-miterlimit="10" stroke-dasharray=""/><path fill="none" stroke="rgb(0,0,0)" class="dcg-svg-major-gridline" paint-order="fill stroke markers" d=" M 450.5 0 L 450.5 800" stroke-opacity="0.2500000000000001" stroke-miterlimit="10" stroke-dasharray=""/><path fill="none" stroke="rgb(0,0,0)" class="dcg-svg-major-gridline" paint-order="fill stroke markers" d=" M 750.5 0 L 750.5 800" stroke-opacity="0.2500000000000001" stroke-miterlimit="10" stroke-dasharray=""/><path fill="none" stroke="rgb(0,0,0)" class="dcg-svg-major-gridline" paint-order="fill stroke markers" d=" M 900.5 0 L 900.5 800" stroke-opacity="0.2500000000000001" stroke-miterlimit="10" stroke-dasharray=""/><path fill="none" stroke="rgb(0,0,0)" class="dcg-svg-major-gridline" paint-order="fill stroke markers" d=" M 1050.5 0 L 1050.5 800" stroke-opacity="0.2500000000000001" stroke-miterlimit="10" stroke-dasharray=""/><path fill="none" stroke="rgb(0,0,0)" class="dcg-svg-major-gridline" paint-order="fill stroke markers" d=" M 0 693.5 L 1200 693.5" stroke-opacity="0.2500000000000001" stroke-miterlimit="10" stroke-dasharray=""/><path fill="none" stroke="rgb(0,0,0)" class="dcg-svg-major-gridline" paint-order="fill stroke markers" d=" M 0 543.5 L 1200 543.5" stroke-opacity="0.2500000000000001" stroke-miterlimit="10" stroke-dasharray=""/><path fill="none" stroke="rgb(0,0,0)" class="dcg-svg-major-gridline" paint-order="fill stroke markers" d=" M 0 393.5 L 1200 393.5" stroke-opacity="0.2500000000000001" stroke-miterlimit="10" stroke-dasharray=""/><path fill="none" stroke="rgb(0,0,0)" class="dcg-svg-major-gridline" paint-order="fill stroke markers" d=" M 0 243.5 L 1200 243.5" stroke-opacity="0.2500000000000001" stroke-miterlimit="10" stroke-dasharray=""/><path fill="none" stroke="rgb(0,0,0)" class="dcg-svg-major-gridline" paint-order="fill stroke markers" d=" M 0 93.5 L 1200 93.5" stroke-opacity="0.2500000000000001" stroke-miterlimit="10" stroke-dasharray=""/></g></g><g id="axis-9b2913d0"><g id="yaxis-9b2913d0"><title>Y axis</title><g><path fill="none" stroke="rgb(0,0,0)" class="dcg-svg-axis-line" paint-order="fill stroke markers" d=" M 600 3 L 600 797" stroke-opacity="0.9" stroke-miterlimit="10" stroke-width="1.5" stroke-dasharray=""/><g class="dcg-svg-axis-line"><path fill="rgb(0,0,0)" stroke="rgb(0,0,0)" class="dcg-svg-axis-line" paint-order="stroke fill markers" d=" M 600 798.5 L 596.8941714587697 786.9088900845312 L 603.1058285412303 786.9088900845312 L 600 798.5 L 596.8941714587697 786.9088900845312" stroke-opacity="0.9" stroke-linejoin="round" stroke-miterlimit="10" stroke-width="1.5" stroke-dasharray="" fill-opacity="0.9"/></g><g class="dcg-svg-axis-line"><path fill="rgb(0,0,0)" stroke="rgb(0,0,0)" class="dcg-svg-axis-line" paint-order="stroke fill markers" d=" M 600 1.5 L 603.1058285412303 13.09110991546882 L 596.8941714587697 13.09110991546882 L 600 1.5 L 603.1058285412303 13.09110991546882" stroke-opacity="0.9" stroke-linejoin="round" stroke-miterlimit="10" stroke-width="1.5" stroke-dasharray="" fill-opacity="0.9"/></g></g></g><g><g class="dcg-svg-axis-value"><text fill="none" stroke="#ffffff" font-family="Arial" font-size="14px" font-style="normal" font-weight="normal" text-decoration="normal" x="588.77587890625" y="696.8457073564607" text-anchor="middle" stroke-miterlimit="2" stroke-width="3" stroke-dasharray="">-2</text><text fill="#000000" stroke="none" font-family="Arial" font-size="14px" font-style="normal" font-weight="normal" text-decoration="normal" x="588.77587890625" y="696.8457073564607" text-anchor="middle">-2</text></g><g class="dcg-svg-axis-value"><text fill="none" stroke="#ffffff" font-family="Arial" font-size="14px" font-style="normal" font-weight="normal" text-decoration="normal" x="588.77587890625" y="546.8457073564607" text-anchor="middle" stroke-miterlimit="2" stroke-width="3" stroke-dasharray="">-1</text><text fill="#000000" stroke="none" font-family="Arial" font-size="14px" font-style="normal" font-weight="normal" text-decoration="normal" x="588.77587890625" y="546.8457073564607" text-anchor="middle">-1</text></g><g class="dcg-svg-axis-value"><text fill="none" stroke="#ffffff" font-family="Arial" font-size="14px" font-style="normal" font-weight="normal" text-decoration="normal" x="591.10693359375" y="396.84570735646076" text-anchor="middle" stroke-miterlimit="2" stroke-width="3" stroke-dasharray="">0</text><text fill="#000000" stroke="none" font-family="Arial" font-size="14px" font-style="normal" font-weight="normal" text-decoration="normal" x="591.10693359375" y="396.84570735646076" text-anchor="middle">0</text></g><g class="dcg-svg-axis-value"><text fill="none" stroke="#ffffff" font-family="Arial" font-size="14px" font-style="normal" font-weight="normal" text-decoration="normal" x="591.10693359375" y="246.8457073564608" text-anchor="middle" stroke-miterlimit="2" stroke-width="3" stroke-dasharray="">1</text><text fill="#000000" stroke="none" font-family="Arial" font-size="14px" font-style="normal" font-weight="normal" text-decoration="normal" x="591.10693359375" y="246.8457073564608" text-anchor="middle">1</text></g><g class="dcg-svg-axis-value"><text fill="none" stroke="#ffffff" font-family="Arial" font-size="14px" font-style="normal" font-weight="normal" text-decoration="normal" x="591.10693359375" y="96.84570735646084" text-anchor="middle" stroke-miterlimit="2" stroke-width="3" stroke-dasharray="">2</text><text fill="#000000" stroke="none" font-family="Arial" font-size="14px" font-style="normal" font-weight="normal" text-decoration="normal" x="591.10693359375" y="96.84570735646084" text-anchor="middle">2</text></g></g></g></g><g id="expressions-9b2913d0"><g id="sketch-9b2913d0"><title>Expression 1</title><path fill="#6042a6" stroke="none" paint-order="stroke fill markers" d="" fill-opacity="0.4"/><g><path fill="none" stroke="#6042a6" class="dcg-svg-curve" paint-order="fill stroke markers" d=" M 557.8125 241.99437484795297 L 557.8125 241.99437484795297 L 452.34375 242.15971326507005 L 451.63231215131674 242.2711668991222 L 449.91590435158423 243.12923156956577 L 449.5694337150223 243.64641918998518 L 449.0257360345232 246.6161156896822 L 448.95691626512996 254.60163915658012 L 449.1139197752187 540.625 L 449.8002372027693 542.8052338446996 L 450.2733483602527 543.2691099451273 L 452.63435007906173 543.9468916139589 L 457.71235153435475 544.0771823104301 L 663.28125 544.0810398649686 L 748.0835603762029 543.8557514158648 L 750.1997627972307 542.8052338446996 L 750.5216272319492 542.2303735120338 L 750.9975748723316 538.8671875 L 751.04332581317 526.5625 L 750.8697701383824 245.31250000000006 L 750.0840956484158 243.12923156956577 L 749.6920199559756 242.78198635845104 L 747.1831681157516 242.11226292283231 L 739.74609375 241.99501075160384 L 557.8125 241.99437484795297" stroke-linecap="round" stroke-linejoin="round" stroke-miterlimit="10" stroke-width="2.5" stroke-dasharray=""/></g></g><g id="sketch-9b2913d0"><title>Expression 2</title><path fill="#388c46" stroke="none" paint-order="stroke fill markers" d="" fill-opacity="0.4"/><g><path fill="none" stroke="#388c46" class="dcg-svg-curve" paint-order="fill stroke markers" d=" M 494.53125 215.70246690855967 L 494.53125 215.70246690855967 L 490.52229679621354 217.18750000000006 L 480.1964198635601 221.69344657570676 L 473.4375 225.2614546889442 L 464.0052792323702 231.25000000000006 L 449.57408486385935 243.4660565759063 L 447.79220663738886 245.31250000000006 L 441.64383652532797 252.4457756497814 L 434.9879671041671 261.86697806944477 L 431.25 268.22031797131484 L 428.5565496039001 273.4375 L 422.68916297158376 287.50000000000006 L 420.312226742437 294.79184883837536 L 417.3034495902341 306.32729972682273 L 415.4445866926243 315.625 L 413.18955384179037 331.70970256119364 L 412.13595871373803 343.75 L 411.39255733041495 358.63670488694333 L 411.0144392446265 386.5096261630843 L 411.1067098828886 414.6961399219257 L 411.41584878454955 428.125 L 412.2235450941236 443.5656967294158 L 413.39917016359436 456.25 L 416.16211792701006 474.31641195134 L 418.4089767303284 484.375 L 420.4080480263051 491.60296798246327 L 422.6403836015861 498.4375 L 429.17212435204533 513.8852504319698 L 431.25 517.8550849022362 L 436.5164520579002 526.5625 L 441.6780125888198 533.6729916074535 L 447.66252778915964 540.625 L 452.34375 545.3103852232732 L 458.4410377451885 550.6226415032077 L 463.8105424145457 554.6875 L 473.4375 560.8139674273953 L 480.077140849639 564.3235727669073 L 494.53125 570.3729452630022 L 507.3235674634813 574.2842883576791 L 515.625 576.2448570866412 L 530.8274932704451 578.8849955136301 L 540.8290779499943 580.0722813666705 L 557.8125 581.3225033939863 L 580.1949964480602 581.9533357012931 L 622.4318073312172 581.9204617791885 L 642.1875 581.3225033939863 L 663.28125 579.6306137030778 L 669.1725067295549 578.8849955136301 L 684.375 576.2448570866412 L 692.6764325365186 574.2842883576791 L 709.8321018001341 568.75 L 719.922859150361 564.3235727669073 L 726.5625 560.8139674273953 L 736.1894575854543 554.6875 L 741.5589622548115 550.6226415032077 L 747.65625 545.3103852232732 L 752.3374722108404 540.625 L 758.3219874111802 533.6729916074535 L 763.4835479420998 526.5625 L 770.8278756479547 513.8852504319698 L 772.7734419984936 509.8177053343376 L 777.3596163984139 498.4375 L 779.5919519736949 491.60296798246327 L 781.5910232696716 484.375 L 784.5796322906558 470.3125 L 785.1090556405759 467.15603709371726 L 786.6008298364056 456.25 L 787.9573551556796 440.9299034371197 L 788.5841512154504 428.125 L 788.9850077508862 400 L 788.899660836609 371.875 L 788.548476923723 356.94898461581533 L 787.8640412862619 343.75 L 786.3020740038455 327.3263826692304 L 784.5554133073757 315.625 L 781.5560701811603 301.56250000000006 L 779.687773257563 294.79184883837536 L 775.6044401354836 282.930373243011 L 771.4434503960999 273.4375 L 768.75 268.22031797131484 L 763.3913889729605 259.375 L 758.356163474672 252.4457756497814 L 750.4259151361407 243.4660565759063 L 747.65625 240.76502839606084 L 735.9947207676298 231.25000000000006 L 726.5625 225.2614546889442 L 719.8035801364399 221.69344657570676 L 716.015625 219.91800953906616 L 705.46875 215.70246690855967 L 694.921875 212.39455553100962 L 684.375 209.83056118935434 L 676.5611466389987 208.3342355740009 L 663.28125 206.44479952751152 L 639.9080814963744 204.64461233575045 L 621.09375 204.1371838984723 L 578.90625 204.1371838984723 L 555.157700092528 204.89486660498136 L 536.71875 206.44479952751152 L 523.4388533610013 208.3342355740009 L 514.1192313965032 210.15625000000006 L 505.078125 212.39455553100962 L 494.53125 215.70246690855967" stroke-linecap="round" stroke-linejoin="round" stroke-miterlimit="10" stroke-width="2.5" stroke-dasharray=""/></g></g><g id="sketch-9b2913d0"><title>Expression 3</title><path fill="#2d70b3" stroke="none" paint-order="stroke fill markers" d="" fill-opacity="0.4"/><g><path fill="none" stroke="#2d70b3" class="dcg-svg-curve" paint-order="fill stroke markers" d=" M 481.3547143484905 217.18750000000009 L 481.3547143484905 217.18750000000009 L 467.55762529293827 227.33008352862552 L 462.7967424744526 231.25000000000006 L 447.75920006574836 245.31250000000006 L 435.27514447784614 259.37500000000006 L 431.25 264.49420847010674 L 424.7978616429084 273.43750000000006 L 420.34793863202856 280.23195908801904 L 415.98426489229587 287.50000000000006 L 407.88941723903827 303.07372184064116 L 402.49741308556133 315.625 L 397.5481523360729 329.6875 L 393.05546546324035 346.41197697549364 L 390.81303914736213 357.8125 L 388.9164887108706 371.9723408594196 L 387.86826577552824 392.6816721895144 L 388.00654304012323 400.7039713065845 L 389.0625 415.5179184399436 L 391.01199345541784 429.4246623036119 L 393.64036821033505 442.1875 L 397.5050478883792 456.25 L 402.44341101647035 470.3125 L 404.0770096344936 474.36532691033756 L 410.15625 487.69153610351555 L 415.9052335555043 498.4375 L 419.6948175954824 504.79654506365495 L 426.7746703030525 515.4835531312983 L 435.16333018755296 526.5625 L 441.36912682597097 533.8789154493527 L 452.34375 545.3453762212549 L 462.63428140810265 554.6875 L 477.3668120396761 566.1304586402159 L 481.1505688739185 568.75 L 499.20766644484365 579.6948890367709 L 505.2079937562536 582.8125 L 515.625 587.6677633793079 L 524.1938006077712 591.1624662614859 L 541.2603034916832 596.875 L 557.8125 600.9324267906991 L 566.1861356854456 602.457423790297 L 578.90625 604.1183878911903 L 588.0621645731485 604.8335569512343 L 600 605.169741712425 L 611.9378354268515 604.8335569512343 L 621.09375 604.1183878911903 L 633.8138643145544 602.457423790297 L 646.7920484254246 599.944698950283 L 663.28125 595.511119666184 L 675.8061993922288 591.1624662614859 L 684.375 587.6677633793079 L 700.7923335551563 579.6948890367709 L 705.46875 577.0929773809826 L 722.6331879603239 566.1304586402159 L 726.5625 563.2785134711202 L 741.8183759923802 550.7955839949201 L 752.3744991429521 540.625 L 758.630873174029 533.8789154493527 L 768.75 521.5812048615269 L 775.2962033595313 512.5 L 784.0947664444957 498.4375 L 789.84375 487.69153610351555 L 791.4614797244438 484.375 L 797.5565889835297 470.3125 L 802.4949521116208 456.25 L 803.9002584875782 451.55850565838546 L 806.359631789665 442.1875 L 809.3814699901308 427.0876466600872 L 811.0875602032542 414.0625 L 812.0406167555074 399.26458882966176 L 812.1317342244718 392.6816721895144 L 810.9375 370.5572500278248 L 809.1869608526379 357.8125 L 805.4118188369737 340.0662125579825 L 802.4518476639271 329.6875 L 797.5025869144387 315.625 L 789.84375 298.3839120611857 L 784.0157351077041 287.50000000000006 L 775.2021383570916 273.43750000000006 L 764.7248555221538 259.37500000000006 L 759.5564679620458 253.2459786413639 L 747.65625 240.73002882372268 L 732.4423747070617 227.33008352862552 L 726.5625 222.79690933179972 L 711.9620479057689 212.85863472948745 L 705.46875 208.98244367713014 L 688.6124972436406 200.30000183757295 L 684.375 198.40765450523347 L 663.28125 190.56429476502873 L 658.2589780305294 189.06250000000006 L 642.1875 185.14298740301197 L 630.10778373393 183.05314417738006 L 621.09375 181.95702703685185 L 609.1550000245752 181.10333334971688 L 600 180.90567300049656 L 590.8449999754248 181.10333334971688 L 578.90625 181.95702703685185 L 569.89221626607 183.05314417738006 L 557.8125 185.14298740301197 L 536.71875 190.56429476502873 L 532.3293357360626 191.98877617595835 L 511.38750275635937 200.30000183757295 L 505.4846141250796 203.12500000000006 L 494.53125 208.98244367713014 L 481.3547143484905 217.18750000000009" stroke-linecap="round" stroke-linejoin="round" stroke-miterlimit="10" stroke-width="2.5" stroke-dasharray=""/></g></g><g id="sketch-9b2913d0"><title>Expression 4</title><path fill="#c74440" stroke="none" paint-order="stroke fill markers" d="" fill-opacity="0.4"/><g><path fill="none" stroke="#c74440" class="dcg-svg-curve" paint-order="fill stroke markers" d=" M 560.2252073564607 132.81250000000006 L 560.2252073564607 132.81250000000006 L 300.0689573564607 392.96875 L 321.02479264353923 414.0625 L 600 693.0377073564607 L 899.9310426435393 392.96875 L 600 93.03770735646088 L 560.2252073564607 132.81250000000006" stroke-linecap="round" stroke-linejoin="round" stroke-miterlimit="10" stroke-width="2.5" stroke-dasharray=""/></g></g><g id="sketch-9b2913d0"><title>Expression 5</title><path fill="#000000" stroke="none" paint-order="stroke fill markers" d="" fill-opacity="0.4"/><g><path fill="none" stroke="#000000" class="dcg-svg-curve" paint-order="fill stroke markers" d=" M 579.4069394240122 -5.5 L 579.4069394240122 -5.5 L 578.3772243473212 -0.7812499999998863 L 573.9543298847304 17.01121992315376 L 568.359375 36.96467711006051 L 562.5229480825855 55.46875000000006 L 557.6139985968252 69.59741713439172 L 551.2784339206388 86.26895594709265 L 543.5394876585565 104.68750000000006 L 536.71875 119.46788625349848 L 526.4265972062503 139.6739351958332 L 515.625 158.66270294723216 L 508.4563012688302 170.22086751255353 L 505.35048958816583 175.00000000000006 L 494.53125 190.68424639676428 L 481.1498351308713 208.26655675391424 L 465.9124274691144 226.23328497940963 L 452.34375 240.6754987013859 L 447.7078238472105 245.31250000000006 L 431.25 260.6838084150299 L 410.15625 278.1939438600381 L 389.0625 293.6126702519314 L 367.96875 307.2470253593053 L 346.875 319.3355601273262 L 323.78031547628694 331.0214563491421 L 300.86961450451145 341.20474300300765 L 283.59375 348.0526628681923 L 262.5 355.5376522645139 L 241.40625 362.1426606528494 L 230.10547210590892 365.34635192939413 L 208.93257359454162 370.76426479272226 L 188.671875 375.2825391533762 L 166.95931087968933 379.45630699583177 L 147.86765372682203 382.5949932715254 L 127.82231904592987 385.39076745581303 L 106.75762831605186 387.81262278929876 L 83.84895994341491 389.88368162894324 L 60.791015625 391.41410656042507 L 37.57069453016686 392.429942186778 L 12.795631829324861 392.96875" stroke-linecap="round" stroke-linejoin="round" stroke-miterlimit="10" stroke-width="2.5" stroke-dasharray=""/></g><g><path fill="none" stroke="#000000" class="dcg-svg-curve" paint-order="fill stroke markers" d=" M 16.990210506115773 393.1653804959228 L 16.990210506115773 393.1653804959228 L 18.603515624999886 393.1787377756415 L 52.306070118732464 394.2308490875118 L 76.6916604953442 395.6590236635628 L 99.0234375 397.5004892881358 L 120.44975385217509 399.77828909855 L 141.4164834169839 402.5264574817635 L 157.03125 404.9271387223716 L 178.125 408.6822791209373 L 200.33626684630315 413.3174887691312 L 220.3125 418.1311483185513 L 231.0270957566105 420.98193616225973 L 241.40625 423.9327137763334 L 262.50000000000006 430.5377119802639 L 283.59375 438.022712919159 L 294.3025363184986 442.1875 L 313.5482882286433 450.3428078475712 L 326.28674708569173 456.25 L 346.875 466.7398644031005 L 361.2273093666037 474.8067937555975 L 376.8608512051459 484.375 L 389.0625 492.4627449828152 L 403.54856595989463 502.84262269340354 L 415.99031786997057 512.5 L 432.5666329407828 526.5625 L 447.5677307488058 540.625 L 461.2141554377125 554.6875 L 473.99293569369786 569.1202904624652 L 488.2966648765413 586.9688900823057 L 495.59782881472717 596.875 L 505.25959273462473 610.9375 L 515.625 627.4127077258486 L 526.237145455638 646.050236362908 L 529.9820028299723 653.125 L 537.1278592882593 667.4602395255063 L 547.9211420810983 691.5783693063006 L 554.9889839564948 709.375 L 560.7626021624142 725.4042347749428 L 567.209456476578 745.297862348948 L 573.0391729279912 765.625 L 578.3448743548386 786.71875 L 582.4471841137432 805.5" stroke-linecap="round" stroke-linejoin="round" stroke-miterlimit="10" stroke-width="2.5" stroke-dasharray=""/></g><g><path fill="none" stroke="#000000" class="dcg-svg-curve" paint-order="fill stroke markers" d=" M 617.5760946358675 805.5 L 617.5760946358675 805.5 L 618.5093069952587 800.78125 L 623.0278138582971 780.9768759055313 L 626.9608270720088 765.625 L 633.0250167981978 744.5312499999999 L 637.5230192572053 730.4687499999999 L 644.4456240513372 710.8804160342247 L 650.5357094850048 695.3125 L 656.5215449649278 681.25 L 663.28125 666.6075289563172 L 673.762854544362 646.050236362908 L 684.375 627.4127077258486 L 686.8348401973644 623.3601065350904 L 698.0491184359377 605.9910789572918 L 711.7033351234587 586.9688900823057 L 714.8974002297304 582.8125 L 726.5625 568.4650218292663 L 742.1976513543973 551.0484342362648 L 752.4322692511942 540.625 L 768.75 525.3916149653576 L 784.0096821300294 512.5 L 796.4514340401054 502.84262269340354 L 810.9375 492.4627449828152 L 823.1391487948541 484.375 L 838.7726906333962 474.8067937555975 L 853.125 466.7398644031005 L 873.7132529143082 456.25 L 886.4517117713567 450.3428078475712 L 905.6974636815014 442.1875 L 916.40625 438.022712919159 L 939.9184730838341 429.7373153892227 L 958.59375 423.9327137763334 L 979.6875 418.1311483185513 L 999.6637331536969 413.3174887691312 L 1015.6453616064896 409.9094077376597 L 1033.0402056792148 406.6190295471902 L 1058.583516583016 402.5264574817635 L 1080.358490676595 399.6828812156034 L 1102.9208094367573 397.3188917490098 L 1125.8414918539584 395.48286956930554 L 1153.7109375 393.96980690937113 L 1175.2977348885838 393.2974482590559 L 1183.0097894938842 393.1653804959228" stroke-linecap="round" stroke-linejoin="round" stroke-miterlimit="10" stroke-width="2.5" stroke-dasharray=""/></g><g><path fill="none" stroke="#000000" class="dcg-svg-curve" paint-order="fill stroke markers" d=" M 1187.204368170675 392.96875 L 1187.204368170675 392.96875 L 1156.34765625 392.21001976101803 L 1135.2188702451253 391.18758016341684 L 1111.446804273993 389.50421381733804 L 1090.4296875 387.5184163513774 L 1069.959784059178 385.1057045877629 L 1048.7616033907448 382.0755977395035 L 1029.9698501720177 378.90625 L 1011.328125 375.2825391533762 L 991.0674264054584 370.76426479272226 L 969.8945278940911 365.34635192939413 L 954.1030634831515 360.8062910112324 L 937.5 355.5376522645139 L 916.40625 348.0526628681923 L 895.3125 339.5981045580153 L 873.4265011297723 329.6875 L 846.3784892651421 315.625 L 822.9237208790219 301.56250000000006 L 802.257969520278 287.50000000000006 L 783.8386061738964 273.43750000000006 L 763.1755605396661 255.6587070264441 L 747.65625 240.6754987013859 L 734.0875725308856 226.23328497940963 L 718.8501648691288 208.26655675391424 L 714.7901358159786 203.12500000000006 L 703.250687427984 187.58379161865605 L 691.5436987311698 170.22086751255353 L 679.4091823627662 150.18554509148925 L 673.5734027937497 139.6739351958332 L 668.2462669308566 129.50248871276239 L 658.0261832952398 108.19087780317358 L 653.6783673336579 98.28557822243869 L 647.0326333197771 81.97870556007439 L 639.8691475990994 62.50000000000006 L 635.1825743784863 48.4375 L 628.8559424542244 27.343750000000114 L 623.7459769074709 8.018151271647298 L 620.5956728847996 -5.5" stroke-linecap="round" stroke-linejoin="round" stroke-miterlimit="10" stroke-width="2.5" stroke-dasharray=""/></g></g><g id="sketch-9b2913d0"><title>Expression 6</title><path fill="#2d70b3" stroke="none" paint-order="stroke fill markers" d="" fill-opacity="0.4"/><g><path fill="none" stroke="#2d70b3" class="dcg-svg-curve" paint-order="fill stroke markers" d=" M 565.0452493761335 -5.5 L 565.0452493761335 -5.5 L 563.5121025136225 2.450264990918413 L 559.4061277496683 21.37491849977897 L 554.2598897084147 42.590453430528555 L 548.8355324159488 62.50000000000006 L 543.2346764373078 80.90645095820531 L 535.3655925256967 103.78539501713118 L 529.5934688969132 118.75000000000006 L 523.6541358563078 132.81250000000006 L 515.625 150.00176443304568 L 505.88848396830974 168.50898931220655 L 502.1694655881291 175.00000000000006 L 492.7078892830383 190.27807381130782 L 480.45601722791685 207.80401148527798 L 473.1839652654754 217.18750000000006 L 461.2007670591608 231.25000000000006 L 447.70196956279744 245.31250000000006 L 431.25 260.34467285258194 L 410.15625 276.87592477969775 L 389.0625 290.9392200231214 L 367.96875 303.02133001582695 L 358.3504600034846 307.97469333101026 L 342.1725083761748 315.625 L 319.1135319661582 325.2423546441055 L 304.6875 330.59422481701307 L 283.59375 337.6274835173434 L 262.2673215720928 343.90511895193816 L 232.0630029312445 351.5836686208297 L 220.3125 354.23728213773705 L 197.57149687215463 358.9106687518969 L 162.4827983889556 365.08123118527413 L 135.9375 369.03802505263025 L 114.30956815537058 371.875 L 83.203125 375.42752645020636 L 51.562499999999886 378.49048668860786 L 16.24948858782284 381.3545076081181 L -5.5 382.7952245441695" stroke-linecap="round" stroke-linejoin="round" stroke-miterlimit="10" stroke-width="2.5" stroke-dasharray=""/></g><g><path fill="none" stroke="#2d70b3" class="dcg-svg-curve" paint-order="fill stroke markers" d=" M 1205.5 382.82383941715125 L 1205.5 382.82383941715125 L 1196.170845559821 382.24026962678613 L 1158.3229922697549 379.3471718201634 L 1127.34375 376.5058656251926 L 1095.703125 373.08251719178486 L 1064.0625 369.03802505263025 L 1037.5172016110444 365.08123118527413 L 1021.875 362.4735873825896 L 996.8253185470472 357.8125 L 967.9369970687555 351.5836686208297 L 958.59375 349.3463027519359 L 937.172717395981 343.75 L 908.3634399234128 335.0493733843915 L 892.7773157780326 329.6875 L 874.21875 322.60330724224093 L 853.125 313.4840415280611 L 832.03125 303.02133001582695 L 829.3140186870769 301.56250000000006 L 805.4680195095766 287.50000000000006 L 785.1584319640328 273.43750000000006 L 763.9588047852105 256.18086985680713 L 747.65625 240.6692800674505 L 734.2628024478688 226.11646503475416 L 726.5625 216.87183153935172 L 716.1120885983228 203.12500000000006 L 705.46875 187.46212596050418 L 694.1115160316903 168.50898931220655 L 689.9796825971478 160.93750000000009 L 682.1238698031141 145.37424653540947 L 673.4239313112147 126.05071245919027 L 665.5235735466638 106.18238236444256 L 659.9765763164686 90.62500000000006 L 653.3584066591596 69.94727110610654 L 647.2697583519847 48.43750000000006 L 641.9805750966403 27.343750000000114 L 636.4878974863775 2.450264990918413 L 634.8960300659738 -5.5" stroke-linecap="round" stroke-linejoin="round" stroke-miterlimit="10" stroke-width="2.5" stroke-dasharray=""/></g><g><path fill="none" stroke="#2d70b3" class="dcg-svg-curve" paint-order="fill stroke markers" d=" M 897.75824095121 454.61950603252666 L 897.75824095121 454.61950603252666 L 922.83469548772 446.47313032514666 L 937.6704228227798 442.1875 L 958.59375 436.7290833437157 L 983.893856502398 430.92923766826533 L 1000.78125 427.4841521576793 L 1030.9750787739972 422.05828081733523 L 1055.5285990328755 418.24911634429185 L 1086.807503355815 414.0625 L 1116.796875 410.6479627420294 L 1148.4375 407.5850582872119 L 1183.517948891732 404.7380340721787 L 1205.5 403.2807719531136" stroke-linecap="round" stroke-linejoin="round" stroke-miterlimit="10" stroke-width="2.5" stroke-dasharray=""/></g><g><path fill="none" stroke="#2d70b3" class="dcg-svg-curve" paint-order="fill stroke markers" d=" M 632.3361345346149 805.5 L 632.3361345346149 805.5 L 634.4598699313613 793.75 L 638.8154843559212 772.6562499999999 L 643.7083185588168 751.5625 L 648.4269028634627 733.3403980910249 L 653.1846257878285 716.7064171918856 L 660.0235105548915 695.3125 L 665.0186082960721 681.25 L 673.1883421408778 660.5827719060815 L 678.2386349916346 649.0340899944231 L 684.375 636.0736519792194 L 693.2759785317627 619.0660143121581 L 700.0557188217757 607.3288125478505 L 706.5898693704306 596.875 L 716.2114853010094 582.8125 L 727.3512226486204 568.2241849009197 L 742.2390023436005 551.0760015624003 L 752.4388604781984 540.625 L 767.7775667228739 526.5625 L 777.638633093748 518.425755395832 L 789.84375 509.1994744075865 L 805.683218613113 498.4375 L 819.4456755074029 490.04711700493533 L 832.03125 483.0540620663148 L 842.8324437907091 477.5132958604728 L 858.1353747921278 470.3125 L 874.21875 463.47209790889923 L 897.75824095121 454.61950603252666" stroke-linecap="round" stroke-linejoin="round" stroke-miterlimit="10" stroke-width="2.5" stroke-dasharray=""/></g><g><path fill="none" stroke="#2d70b3" class="dcg-svg-curve" paint-order="fill stroke markers" d=" M -5.5 403.21818106024915 L -5.5 403.21818106024915 L 30.46875 405.8100733276242 L 64.76393193171032 408.80095462114025 L 96.67146986123151 412.11485342584564 L 125.390625 415.61345403380653 L 149.61532430804937 419.0064504613004 L 178.125 423.6018550146309 L 202.48030342270204 428.125 L 228.69514104369233 433.7134273624616 L 247.36138230166665 438.21741179888886 L 262.5 442.23471612639145 L 283.59375 448.4479558601066 L 306.8395897448726 456.25 L 332.1214883665453 466.0856744223031 L 346.875 472.5913783223441 L 357.16755620929086 477.5132958604728 L 370.43125786518044 484.375 L 389.0625 495.13617679773745 L 402.2795011573297 503.68866589511345 L 414.65687041085255 512.5 L 422.361366906252 518.425755395832 L 432.2224332771261 526.5625 L 447.5611395218016 540.625 L 457.7609976563995 551.0760015624003 L 461.0761806358595 554.6875 L 473.4375 569.2035751516225 L 487.2329697919271 587.6780201387153 L 494.53125 598.613284503934 L 502.0886018832339 610.9375 L 511.4234748296593 627.8010167802271 L 517.0868441762416 639.0625 L 523.5932138609519 653.125 L 531.0480796540147 670.9679468973235 L 539.371388436833 693.5440743754446 L 544.5681847291752 709.375 L 550.0628165142391 727.885522171413 L 554.785662424603 745.5401958584657 L 559.9376489985838 767.0417659990558 L 564.6419817842309 789.197012143846 L 567.675313408692 805.5" stroke-linecap="round" stroke-linejoin="round" stroke-miterlimit="10" stroke-width="2.5" stroke-dasharray=""/></g></g><g id="sketch-9b2913d0"><title>Expression 7</title><path fill="#388c46" stroke="none" paint-order="stroke fill markers" d="" fill-opacity="0.4"/><g><path fill="none" stroke="#388c46" class="dcg-svg-curve" paint-order="fill stroke markers" d=" M 542.9401632557823 -5.5 L 542.9401632557823 -5.5 L 541.309177514153 6.250000000000114 L 536.71875 34.80066535332156 L 531.5061726139617 62.50000000000006 L 527.0445745152088 83.01195032319424 L 521.6380435824894 104.68750000000006 L 515.625 125.48165545341726 L 509.78584628118324 142.98223085412224 L 505.92580384871053 153.34113076752632 L 501.04037699970723 165.27691799980488 L 494.53125 179.43860373972817 L 486.7087882213035 194.27747451913103 L 479.07592112209204 206.88394741472806 L 472.0178822448488 217.18750000000006 L 460.9209102452588 231.25000000000006 L 447.6898142911477 245.31250000000006 L 431.25 259.685875209007 L 420.703125 267.5076322264364 L 410.15625 274.4535335946513 L 397.90313410638686 281.60624392907545 L 386.54144960513815 287.50000000000006 L 362.67388562694236 298.0325904179616 L 346.875 303.90635684829954 L 325.78125 310.6890073159094 L 302.56980511149453 317.036796592337 L 274.35786320309273 323.5302421353952 L 262.49999999999994 325.9347250582377 L 241.141208397818 329.8641944014547 L 207.4713595874113 335.1892397249409 L 178.125 339.13690931156464 L 157.03125 341.6513389842376 L 114.84375 346.0249019068351 L 72.65625 349.6997725464317 L 23.688166589740263 353.2921110598269 L -5.5 355.0775599731056" stroke-linecap="round" stroke-linejoin="round" stroke-miterlimit="10" stroke-width="2.5" stroke-dasharray=""/></g><g><path fill="none" stroke="#388c46" class="dcg-svg-curve" paint-order="fill stroke markers" d=" M 1205.5 355.0775599731056 L 1205.5 355.0775599731056 L 1176.3118334102596 353.2921110598269 L 1138.2303297661429 350.5547801559047 L 1100.6989099762795 347.45072668248025 L 1062.2575670882352 343.75 L 1021.875 339.13690931156464 L 992.5286404125886 335.1892397249409 L 979.6875 333.26981882635897 L 957.8402890829475 329.6875 L 925.6421367969073 323.5302421353952 L 916.40625 321.5322625633367 L 891.9330315768607 315.625 L 864.8478204073089 307.80978639512745 L 846.5736574223607 301.56250000000006 L 832.03125 295.8840851245354 L 810.9375 286.24738669207574 L 800.0427468494738 280.46875000000006 L 788.2235100233363 273.43750000000006 L 777.7320325559972 266.40625000000006 L 766.4106224395306 257.81541495968713 L 750.4281143526022 243.46459043159857 L 747.65625 240.65636465659804 L 734.6186060484013 225.87926263439925 L 726.5625 215.20851758168644 L 718.5413067146288 203.12500000000006 L 709.1181239164483 186.62958405570117 L 703.3370941070978 175.00000000000006 L 697.125007803073 160.93750000000006 L 690.2141537188168 142.98223085412224 L 684.375 125.48165545341726 L 681.827733516298 117.05182234419874 L 676.1306219413132 96.12125203912467 L 671.4900916240722 76.56250000000006 L 668.4938273860383 62.50000000000006 L 663.2074641576385 34.37500000000017 L 658.690822485847 6.250000000000114 L 657.0227903483011 -5.5" stroke-linecap="round" stroke-linejoin="round" stroke-miterlimit="10" stroke-width="2.5" stroke-dasharray=""/></g><g><path fill="none" stroke="#388c46" class="dcg-svg-curve" paint-order="fill stroke markers" d=" M 909.952616235486 466.010077490324 L 909.952616235486 466.010077490324 L 929.1518936803984 461.8154042130677 L 942.0255698492692 459.2670465661795 L 958.634681167121 456.25 L 986.3781168150163 451.78958878998924 L 1021.875 446.938556839041 L 1045.8380470349416 444.10036468996117 L 1088.887605082779 439.69992994481413 L 1137.2281565803605 435.5978956130931 L 1184.4453541158045 432.244763922797 L 1205.5 430.9747136870117" stroke-linecap="round" stroke-linejoin="round" stroke-miterlimit="10" stroke-width="2.5" stroke-dasharray=""/></g><g><path fill="none" stroke="#388c46" class="dcg-svg-curve" paint-order="fill stroke markers" d=" M 655.1662698268806 805.5 L 655.1662698268806 805.5 L 656.6894548343504 793.75 L 660.8859916423198 765.6249999999999 L 665.7684712407053 737.5 L 671.5207848042619 709.375 L 677.1221902164848 686.0852065223435 L 682.3691408667925 667.1875 L 687.4529748643893 651.0730167570737 L 694.4670863930411 631.7280575953607 L 697.1822513349025 625 L 705.46875 606.6368157997839 L 710.4857251836581 596.875 L 718.62704425979 582.8125 L 729.5424388121958 566.7633741252027 L 742.323662134281 551.1324414228541 L 752.4525546243815 540.625 L 759.2747193050684 534.3081462033789 L 768.75 526.38953262473 L 778.5921084996806 519.0614056664538 L 789.84375 511.6218574177931 L 800.3445724087908 505.43804827252717 L 813.7398317767893 498.4375 L 832.03125 490.1913441736244 L 853.125 482.16903284465263 L 859.8653181223506 479.8814545850997 L 879.516542826979 473.84436188465276 L 895.3125 469.5762757340113 L 909.952616235486 466.010077490324" stroke-linecap="round" stroke-linejoin="round" stroke-miterlimit="10" stroke-width="2.5" stroke-dasharray=""/></g><g><path fill="none" stroke="#388c46" class="dcg-svg-curve" paint-order="fill stroke markers" d=" M -5.5 430.9707324775743 L -5.5 430.9707324775743 L 15.554645884195452 432.244763922797 L 62.771843419639595 435.5978956130931 L 93.75 438.136702280172 L 136.4158918278929 442.1875 L 178.125 446.938556839041 L 199.21875 449.71763924054096 L 224.4981308613731 453.45957942575126 L 257.97443015073077 459.2670465661795 L 270.8481063196016 461.8154042130677 L 290.047383764514 466.010077490324 L 307.5389696561628 470.3125 L 325.78125 475.3863830572851 L 349.0416316949718 482.93057887001885 L 353.05030826282405 484.375 L 375.49441484063175 493.42039010624546 L 389.0625 499.82802924052413 L 399.6554275912092 505.43804827252717 L 411.55819830197026 512.5 L 421.40789150031935 519.0614056664538 L 431.46912037326666 526.5625 L 440.7252806949316 534.3081462033789 L 452.34375 545.4190496232425 L 460.8024219358904 554.6875 L 473.4375 570.8669126146797 L 485.1420926328193 589.0719382447871 L 489.5142748163418 596.875 L 497.53144104169513 612.9376273611301 L 505.53291360695886 631.7280575953607 L 508.3227148861025 639.0625 L 515.625 660.593749062295 L 521.6010361555908 681.25 L 526.7823105108358 701.9367929927761 L 532.1007566414197 726.5161622390535 L 536.775153423083 751.6001022820553 L 541.787822185074 783.0668814567159 L 544.8315306508474 805.5" stroke-linecap="round" stroke-linejoin="round" stroke-miterlimit="10" stroke-width="2.5" stroke-dasharray=""/></g></g><g id="sketch-9b2913d0"><title>Expression 8</title><path fill="#c74440" stroke="none" paint-order="stroke fill markers" d="" fill-opacity="0.4"/><g><path fill="none" stroke="#c74440" class="dcg-svg-curve" paint-order="fill stroke markers" d=" M 507.54145489692115 -5.5 L 507.54145489692115 -5.5 L 506.10672849459985 20.312500000000114 L 503.65421862770165 54.51947908513449 L 501.2644560670256 81.05130404468389 L 498.319099669346 107.21273311289747 L 494.53125 133.42229970823735 L 489.88686052020364 157.84124034680246 L 488.20744774721595 165.15336816852277 L 483.699362287643 181.8412415250954 L 481.3869515117058 189.06250000000006 L 475.4666747236191 204.47778314907947 L 473.4375 208.94675941509345 L 469.22418812473546 217.18750000000006 L 461.52169310260933 229.4247574701458 L 457.5088724257233 234.69341495048226 L 452.34375 240.61831528872287 L 447.65403099977243 245.31250000000006 L 439.3756672910114 252.34375000000006 L 429.11284421110724 259.37500000000006 L 416.0547749658047 266.40625000000006 L 406.09597126746417 270.7306475116428 L 392.35376736321 275.63167824214 L 382.96261912107974 278.4354563736933 L 367.96875 282.2168058623883 L 340.8014871136372 287.50000000000006 L 325.78125 289.80238132048294 L 304.68750000000006 292.50577166482014 L 283.59375 294.7367294267473 L 262.5 296.6091083210914 L 236.8385930225415 298.51739534836105 L 198.11938170925094 300.82958780616735 L 155.1305567297223 302.82962884685185 L 93.74999999999994 304.99420992049284 L 22.54861054613218 306.8425929692453 L -5.5 307.40551740952384" stroke-linecap="round" stroke-linejoin="round" stroke-miterlimit="10" stroke-width="2.5" stroke-dasharray=""/></g><g><path fill="none" stroke="#c74440" class="dcg-svg-curve" paint-order="fill stroke markers" d=" M 1205.5 307.37192250591175 L 1205.5 307.37192250591175 L 1148.4375 306.1565128828027 L 1081.2144867162888 304.1903421891409 L 1021.875 301.82147733029535 L 979.6875 299.5761649753428 L 952.9504121481584 297.80027476543904 L 916.40625 294.7367294267473 L 888.943857844294 291.74576143713733 L 874.21875 289.80238132048294 L 850.987927214464 286.07528480964277 L 832.03125 282.2168058623883 L 817.0373808789202 278.4354563736933 L 807.64623263679 275.63167824214 L 793.9040287325358 270.7306475116428 L 783.9452250341953 266.40625000000006 L 779.296875 264.1050840447262 L 768.75 258.03769484066373 L 758.203125 250.43203986485742 L 750.4288392910806 243.46410713927963 L 745.5272114784063 238.28125000000006 L 738.4783068973907 229.4247574701458 L 735.604129697393 225.22224686840474 L 730.7758118752645 217.18750000000006 L 724.5333252763809 204.47778314907947 L 722.943637338566 200.71242489237738 L 718.6130484882942 189.06250000000006 L 714.3253103444432 175.00000000000006 L 710.1131394797964 157.84124034680246 L 707.8634861899792 146.87500000000006 L 705.3561614468932 132.73744096459552 L 701.3651082854113 104.68750000000006 L 698.7355439329745 81.05130404468389 L 696.3457813722983 54.51947908513449 L 693.8932715054002 20.312500000000114 L 692.4585451030789 -5.5" stroke-linecap="round" stroke-linejoin="round" stroke-miterlimit="10" stroke-width="2.5" stroke-dasharray=""/></g><g><path fill="none" stroke="#c74440" class="dcg-svg-curve" paint-order="fill stroke markers" d=" M 907.1513818272583 492.2675878848389 L 907.1513818272583 492.2675878848389 L 937.5 489.46629455562504 L 958.59375 487.8724261920533 L 1000.78125 485.3039116159355 L 1042.96875 483.3243470096639 L 1106.25 481.08118638055413 L 1169.53125 479.41213278879206 L 1205.5 478.6786899442332" stroke-linecap="round" stroke-linejoin="round" stroke-miterlimit="10" stroke-width="2.5" stroke-dasharray=""/></g><g><path fill="none" stroke="#c74440" class="dcg-svg-curve" paint-order="fill stroke markers" d=" M 691.7324326390241 805.5 L 691.7324326390241 805.5 L 693.049118653344 779.6875 L 695.3243427261114 744.7995618174075 L 697.4925999822391 718.120066654826 L 700.142592944583 691.761728629722 L 703.4383702155678 665.8339134770451 L 707.616853671123 640.494569114082 L 710.8366518960654 625 L 714.3632502981166 610.9375 L 718.6597226502446 596.875 L 720.1565489830346 592.6043659886898 L 726.5625 577.1286342556857 L 730.8521717149813 568.75 L 733.5683416661369 564.079438889242 L 742.5637040843121 551.2924693895413 L 747.65625 545.4570635903494 L 752.4929231921135 540.625 L 759.6014251523924 534.5259501015948 L 771.1131328486193 526.5625 L 781.3750057082051 520.9166704721367 L 789.84375 517.0173371234852 L 801.5117082605973 512.5 L 810.9375 509.41702213139723 L 819.0626225808628 507.0832516127582 L 838.1483095046004 502.5155396697336 L 860.034161948874 498.4375 L 878.3197543374283 495.7034971083811 L 907.1513818272583 492.2675878848389" stroke-linecap="round" stroke-linejoin="round" stroke-miterlimit="10" stroke-width="2.5" stroke-dasharray=""/></g><g><path fill="none" stroke="#c74440" class="dcg-svg-curve" paint-order="fill stroke markers" d=" M 58.00094934412482 480.08270043725014 L 58.00094934412482 480.08270043725014 L 114.84375 481.75199799317585 L 157.03125 483.3243470096639 L 199.21875 485.3039116159355 L 241.40625 487.8724261920533 L 271.2445887544326 490.2047258362884 L 292.8486181727416 492.2675878848389 L 304.68750000000006 493.5696381616674 L 328.45240425229537 496.65673049846976 L 346.875 499.61668588668783 L 367.96875 503.858633915382 L 380.93737741913725 507.0832516127582 L 392.21389756329006 510.39906829114 L 398.48829173940265 512.5 L 410.15625 517.0173371234852 L 418.6249942917949 520.9166704721367 L 431.25 528.0377398251966 L 440.3985748476076 534.5259501015948 L 447.5070768078865 540.625 L 452.34375 545.4570635903494 L 460.0835116345776 554.6875 L 466.4316583338631 564.079438889242 L 470.28834234669614 570.8494384355358 L 475.99095930764054 582.8125 L 481.34027734975535 596.875 L 485.63674970188345 610.9375 L 489.16334810393454 625 L 492.38314632887705 640.494569114082 L 496.5616297844322 665.8339134770451 L 498.61783260475454 681.25 L 501.69235509506717 709.375 L 504.12508363493316 737.5 L 506.47754417565636 771.7233038828956 L 508.2683593341974 805.5" stroke-linecap="round" stroke-linejoin="round" stroke-miterlimit="10" stroke-width="2.5" stroke-dasharray=""/></g><g><path fill="none" stroke="#c74440" class="dcg-svg-curve" paint-order="fill stroke markers" d=" M -5.5 478.70350279616736 L -5.5 478.70350279616736 L 51.5625 479.9189108030381 L 58.00094934412482 480.08270043725014" stroke-linecap="round" stroke-linejoin="round" stroke-miterlimit="10" stroke-width="2.5" stroke-dasharray=""/></g></g></g><g id="labels-9b2913d0"/></g></svg>